<svg width="141" height="37" viewBox="0 0 141 37" fill="none" xmlns="http://www.w3.org/2000/svg">
<path fill-rule="evenodd" clip-rule="evenodd" d="M115.322 10.961H112.022V25.961H115.322V18.713C115.263 18.0897 115.359 17.4616 115.599 16.8836C115.84 16.3056 116.219 15.7955 116.702 15.398C118.025 14.7173 119.509 14.4113 120.992 14.513V11.003C118.732 11.003 116.142 11.933 115.322 13.793V10.961V10.961ZM127.332 13.121V10.961H124.032V31.961H127.332V23.831C128.552 25.511 130.302 26.023 132.582 26.023C133.571 26.0414 134.552 25.8508 135.462 25.4637C136.372 25.0767 137.19 24.5019 137.862 23.777C139.265 22.3663 140.052 20.4578 140.052 18.4685C140.052 16.4792 139.265 14.5707 137.862 13.16C137.189 12.4394 136.37 11.8704 135.459 11.4911C134.549 11.1117 133.568 10.9307 132.582 10.96C130.302 10.96 128.552 11.419 127.332 13.119V13.121ZM127.332 18.461C127.314 17.8827 127.426 17.3078 127.659 16.7785C127.893 16.2492 128.243 15.7792 128.682 15.403C129.598 14.5356 130.811 14.0521 132.072 14.0521C133.333 14.0521 134.547 14.5356 135.462 15.403C135.888 15.7908 136.227 16.263 136.46 16.7896C136.692 17.3161 136.812 17.8854 136.812 18.461C136.812 19.0366 136.692 19.6059 136.46 20.1324C136.227 20.659 135.888 21.1312 135.462 21.519C135.019 21.9669 134.491 22.3226 133.909 22.5652C133.327 22.8079 132.702 22.9329 132.072 22.9329C131.442 22.9329 130.817 22.8079 130.236 22.5652C129.654 22.3226 129.126 21.9669 128.682 21.519C128.243 21.1428 127.893 20.6728 127.659 20.1435C127.426 19.6142 127.314 19.0393 127.332 18.461V18.461ZM57.7224 13.091C56.5024 11.411 54.7524 10.963 52.4724 10.963C51.489 10.9303 50.5096 11.1068 49.5994 11.4807C48.6892 11.8546 47.8687 12.4174 47.1922 13.132C46.4773 13.8196 45.9134 14.6486 45.5364 15.566C45.1594 16.4835 44.9775 17.4694 45.0022 18.461C44.9802 19.457 45.1636 20.4469 45.5403 21.3691C45.9171 22.2914 46.4791 23.1263 47.1922 23.822C47.8665 24.5403 48.6865 25.1065 49.597 25.4829C50.5074 25.8594 51.4877 26.0374 52.4724 26.005C54.7524 26.005 56.5024 25.505 57.7224 23.805V25.965H60.9622V10.965H57.7224V13.095V13.091ZM48.2425 18.461C48.2242 17.8783 48.3356 17.2989 48.5691 16.7648C48.8026 16.2307 49.152 15.7552 49.5921 15.373C50.5169 14.524 51.7268 14.053 52.9822 14.053C54.2376 14.053 55.4475 14.524 56.3723 15.373C56.8125 15.7552 57.1618 16.2307 57.3953 16.7648C57.6288 17.2989 57.7407 17.8783 57.7224 18.461C57.7409 19.0506 57.6296 19.637 57.3963 20.1787C57.163 20.7205 56.8134 21.2043 56.3723 21.596C55.4472 22.4443 54.2374 22.9149 52.9822 22.9149C51.727 22.9149 50.5172 22.4443 49.5921 21.596C49.151 21.2043 48.8014 20.7205 48.5681 20.1787C48.3349 19.637 48.224 19.0506 48.2425 18.461ZM67.9822 25.961V4H64.7024V25.961H67.9822ZM74.9724 25.961V4H71.7122V25.961H74.9724ZM89.552 25.056C90.723 24.386 91.6802 23.3978 92.3123 22.206L89.5222 20.616C89.1549 21.2998 88.5953 21.8609 87.9124 22.23C87.1874 22.6388 86.3638 22.8408 85.532 22.814C84.9563 22.8494 84.3799 22.7571 83.844 22.5438C83.3081 22.3304 82.8263 22.0013 82.4324 21.58C82.0152 21.18 81.6903 20.6935 81.4812 20.1547C81.2722 19.6158 81.1841 19.0377 81.2224 18.461C81.1842 17.8915 81.2725 17.3205 81.4817 16.7894C81.691 16.2583 82.0159 15.7804 82.4324 15.39C82.8263 14.9686 83.3081 14.6395 83.844 14.4262C84.3799 14.2129 84.9563 14.1206 85.532 14.156C86.3624 14.1247 87.1859 14.3215 87.9124 14.725C88.5857 15.0943 89.1272 15.664 89.4622 16.355L92.2522 14.735C91.6481 13.5506 90.709 12.57 89.552 11.915C88.3313 11.2473 86.9527 10.9227 85.5623 10.976C84.5707 10.9608 83.5861 11.1434 82.6658 11.513C81.7455 11.8826 80.9081 12.4319 80.2024 13.1287C79.4968 13.8255 78.9371 14.6559 78.5559 15.5714C78.1748 16.487 77.9796 17.4693 77.9822 18.461C77.9489 19.4618 78.1296 20.4581 78.5125 21.3833C78.8953 22.3086 79.4717 23.1413 80.2024 23.826C80.8855 24.5541 81.7184 25.1251 82.6438 25.4996C83.5693 25.8741 84.5651 26.0431 85.5623 25.995C86.9527 26.0483 88.3313 25.7238 89.552 25.056V25.056ZM106.912 23.874C108.283 22.4235 109.034 20.4955 109.005 18.4999C108.976 16.5043 108.17 14.5987 106.758 13.1884C105.346 11.778 103.439 10.9743 101.444 10.9481C99.448 10.9219 97.5208 11.6753 96.072 13.048C95.004 14.1113 94.2772 15.4687 93.9842 16.947C93.6911 18.4253 93.8454 19.9573 94.427 21.3476C95.0087 22.7379 95.9913 23.9233 97.2498 24.7525C98.5082 25.5817 99.9855 26.0171 101.492 26.003C102.495 26.0519 103.497 25.8875 104.431 25.5204C105.365 25.1534 106.211 24.5922 106.912 23.874V23.874ZM97.2122 18.461C97.1714 17.882 97.2595 17.3011 97.4705 16.7603C97.6815 16.2196 98.0103 15.7324 98.4324 15.334C98.8171 14.9098 99.2909 14.5764 99.8201 14.3576C100.349 14.1388 100.921 14.0403 101.492 14.069C102.075 14.04 102.656 14.1382 103.197 14.3566C103.737 14.5751 104.224 14.9086 104.622 15.334C105.413 16.1834 105.852 17.3007 105.852 18.461C105.852 19.6213 105.413 20.7386 104.622 21.588C104.224 22.0134 103.737 22.3469 103.197 22.5654C102.656 22.7838 102.075 22.882 101.492 22.853C100.921 22.8817 100.349 22.7831 99.8201 22.5644C99.2909 22.3456 98.8171 22.0121 98.4324 21.588C98.0103 21.1896 97.6815 20.7024 97.4705 20.1617C97.2595 19.6209 97.1714 19.04 97.2122 18.461V18.461Z" fill="#333333"/>
<path fill-rule="evenodd" clip-rule="evenodd" d="M31 18.5C31.0017 20.5235 30.2779 22.4805 28.96 24.016L28.98 24.032L28.6299 24.379C28.5499 24.464 28.4599 24.548 28.3799 24.63C28.3799 24.63 22.8 30.21 18.98 34.025C18.65 34.358 18.3298 34.677 18.0298 34.978C15.8198 37.186 15.19 37.202 13.02 35.024C12.69 34.698 12.34 34.35 11.98 33.986C8.15998 30.173 2.62012 24.63 2.62012 24.63C2.54012 24.548 2.45012 24.464 2.37012 24.379L2.02002 24.032L2.04004 24.016C0.725332 22.4827 0.00183714 20.5301 3.49518e-06 18.5103C-0.00183014 16.4906 0.717864 14.5366 2.02979 13.001H2.02002L2.06006 12.966C2.33837 12.6432 2.63902 12.3404 2.95996 12.06C2.95996 12.06 8.29 6.73796 12 3.02896C12.35 2.67296 12.6898 2.32897 13.0098 2.01297C15.2298 -0.203034 15.7402 -0.199021 17.9902 2.04498C18.384 2.44023 18.7324 2.87789 19.0298 3.34997C19.7193 4.2889 20.2467 5.33675 20.5898 6.44998C20.8692 7.44163 21.0074 8.46772 21 9.49795C21.0008 11.2322 20.6081 12.9441 19.8511 14.5045C19.0941 16.0649 17.9925 17.4331 16.6299 18.506C17.1043 18.8756 17.5462 19.2854 17.9502 19.731C18.3222 20.0979 18.651 20.5062 18.9302 20.948C20.2902 23.224 20.4799 23.556 18.8799 25.293C18.2788 25.9359 17.6447 26.547 16.98 27.124C16.98 27.06 17 27 17 26.935C16.9962 25.9808 16.7745 25.0402 16.3516 24.1849C15.9287 23.3296 15.3159 22.5823 14.5601 22C13.3174 20.7627 11.7942 19.8439 10.1201 19.322C8.74012 18.767 7.75 18.467 7.75 18.467C7.75 18.467 8.60987 18.22 10.1099 17.661C10.8299 17.39 11.3401 17.143 12.0801 16.788C13.0262 16.3443 13.8833 15.732 14.6099 14.981C15.8914 13.7986 16.7159 12.203 16.939 10.4737C17.162 8.74444 16.7696 6.99181 15.8301 5.52298L15.4902 5.19098L5.58985 15.091C4.70268 15.8337 4.14062 16.8934 4.02295 18.0445C3.90529 19.1955 4.24143 20.3471 4.95996 21.254V21.325L15.4902 31.905L25.9302 21.469V21.384C26.6136 20.5917 26.9927 19.5821 27 18.5358C27.0073 17.4895 26.6424 16.4748 25.9702 15.673L25.98 15.629L25.77 15.423C25.7 15.355 25.6398 15.291 25.5698 15.223C25.5698 15.223 25.4402 15.094 24.9102 14.563C23.0902 12.757 23.3401 13.521 23.3101 10.308C23.3039 9.1621 23.163 8.0209 22.8901 6.90796L28.04 12.053C28.361 12.3334 28.6616 12.6362 28.9399 12.959L28.98 12.994H28.9702C30.2859 14.5261 31.0062 16.4805 31 18.5V18.5Z" fill="#3860D9"/>
</svg>
